Coordinates
version=1
nRows=9
nColumns=36
inDegrees=yes

Units are S.I. units (second, meters, Newtons, ...)
If the header above contains a line with 'inDegrees', this indicates whether rotational values are in degrees (yes) or radians (no).

endheader
time	pelvis_tilt	pelvis_list	pelvis_rotation	pelvis_tx	pelvis_ty	pelvis_tz	hip_flexion_r	hip_adduction_r	hip_rotation_r	knee_angle_r	knee_angle_r_beta	ankle_angle_r	subtalar_angle_r	mtp_angle_r	hip_flexion_l	hip_adduction_l	hip_rotation_l	knee_angle_l	knee_angle_l_beta	ankle_angle_l	subtalar_angle_l	mtp_angle_l	lumbar_extension	lumbar_bending	lumbar_rotation	arm_flex_r	arm_add_r	arm_rot_r	elbow_flex_r	pro_sup_r	arm_flex_l	arm_add_l	arm_rot_l	elbow_flex_l	pro_sup_l
      0.00000000	      1.75782276	      0.19675145	     -0.97991192	      0.30817845	      0.92648132	     -0.08815106	     -3.13023014	     -5.02315682	     -5.11598826	      2.51181731	      0.04383948	     -7.18032719	    -22.97361723	     -5.86425056	     -2.08672136	     -3.00993880	      0.52840999	      5.54392795	      0.09675980	      2.07268245	    -12.99468444	     -5.86425056	     -4.61876741	      1.57130065	      1.16364916	     -1.64639470	     -8.53812021	     -5.94931181	     89.56891401	     82.63911928	     -6.29462468	     -4.25380075	      0.98323649	     90.48970142	     85.18471359
      0.01694910	      0.42954342	      0.03266602	     -0.48690514	      0.31347544	      0.92404729	     -0.09302352	     -1.88435864	     -4.71957921	     -4.62006848	      2.53264519	      0.04420300	     -5.14577367	    -22.63614211	     -5.90110552	     -0.81523023	     -2.90186207	      1.60666973	      4.72860314	      0.08252969	      2.97514591	    -12.24897825	     -5.90110552	     -2.04902986	      2.22273297	      0.71625320	     -2.31032717	     -8.04481383	     -8.95998344	     89.43604430	     82.84225866	     -7.19838715	     -4.11296573	      0.29848209	     91.10198105	     85.42772385
      0.03389830	     -0.28968119	      0.34501283	     -0.78506216	      0.31324455	      0.92329126	     -0.09262052	     -1.32108956	     -5.14603516	     -5.10807287	      1.96927656	      0.03437036	     -4.67856982	    -22.81964033	     -6.38666717	     -0.26584406	     -2.53816702	      1.83325583	      4.25494266	      0.07426276	      3.23223750	    -11.94925322	     -6.38666717	     -1.33533260	      1.62674641	      1.71871305	     -3.17479033	     -8.16728827	    -10.47205374	     89.28578445	     82.03757468	     -6.29016431	     -4.93413044	      1.10210408	     90.96335564	     83.66654835
      0.05084750	      0.06440899	      0.50298284	     -0.80241924	      0.31729872	      0.92366278	     -0.08782238	     -2.06110160	     -5.26575161	     -4.91738990	      1.51180965	      0.02638606	     -4.42747101	    -22.92627557	     -6.40419213	     -1.29233375	     -2.48009746	      2.08771736	      3.26330107	      0.05695535	      3.00039556	    -11.58409380	     -6.40419213	     -1.47987166	      0.97161373	      2.05223674	     -3.83627017	     -7.91752031	    -10.56755308	     88.59880874	     82.14137451	     -6.02649658	     -5.21203162	      0.71543192	     91.44064954	     83.82707952
      0.06779660	      0.33505819	      0.43590383	     -0.91359147	      0.31663813	      0.92400682	     -0.08804734	     -2.57746913	     -5.09696549	     -4.59164414	      1.26529094	      0.02208349	     -4.48478844	    -23.75350693	     -6.72138277	     -2.05099171	     -2.61542678	      2.52254495	      2.61421006	      0.04562657	      3.02800894	    -11.62207442	     -6.72138277	     -1.77665514	      0.83029552	      2.41936976	     -4.00159610	     -7.73367683	    -10.74434125	     88.63036572	     79.90058804	     -5.88406698	     -5.32374673	      0.89952242	     91.72520467	     82.60480466
      0.08474580	      0.67370415	      0.35527190	     -0.87944882	      0.31205242	      0.92424726	     -0.09214188	     -2.95464252	     -5.02233550	     -4.54712567	      1.16915132	      0.02040554	     -4.43322503	    -24.19762264	     -6.74101237	     -2.51992234	     -2.64337866	      2.89660504	      2.22905419	      0.03890433	      2.95363888	    -11.80227659	     -6.74101237	     -2.26238389	      0.75484621	      2.57612909	     -3.60784113	     -7.77067719	    -11.10927697	     88.33524751	     79.84867631	     -5.11378779	     -5.71053311	      1.01292559	     91.53972216	     83.07473370
      0.10169490	      0.91624653	      0.25372892	     -0.83174564	      0.31151096	      0.92484199	     -0.09250657	     -3.19335913	     -4.94240469	     -4.33939899	      1.12739149	      0.01967669	     -4.71718453	    -25.22757303	     -6.93799525	     -2.82613873	     -2.69038674	      3.42590711	      1.98594478	      0.03466128	      2.64513153	    -12.34501856	     -6.93799525	     -2.70248391	      0.72611724	      2.91680208	     -3.23095086	     -7.83048953	    -11.52050200	     88.36755700	     77.33858125	     -4.23839102	     -6.24558546	      1.82768792	     91.16096716	     81.78684241
      0.11864410	      0.94519658	      0.13034404	     -0.80064347	      0.31597896	      0.92465714	     -0.08792846	     -3.29244187	     -4.70296650	     -4.27419124	      1.11778969	      0.01950911	     -4.62972475	    -25.29174932	     -6.93887760	     -2.93629270	     -2.88152110	      3.52589711	      1.96512807	      0.03429796	      2.63717795	    -12.34408097	     -6.93887760	     -2.75161910	      0.56619220	      2.95082939	     -3.13664385	     -7.74194014	    -11.52263013	     88.34068629	     77.33414433	     -4.16041636	     -6.59882035	      1.75884063	     91.04012025	     81.80753917
      0.13559320	      1.58996223	      0.00914211	     -0.80141906	      0.31531107	      0.92555395	     -0.08834502	     -4.10262419	     -4.48935490	     -3.94202139	      1.01937234	      0.01779140	     -4.77469933	    -26.03363757	     -7.17313383	     -3.78238365	     -3.04608703	      3.83627816	      1.76807067	      0.03085865	      2.39828189	    -12.62134046	     -7.17313383	     -3.44450150	      0.53040965	      3.29340628	     -3.06751635	     -7.46924313	    -12.44047652	     88.06152859	     75.42630634	     -3.05139180	     -7.67276634	      3.15806387	     90.01615277	     81.68122452
